<svg width="28" height="21" viewBox="0 0 28 21" fill="none" xmlns="http://www.w3.org/2000/svg">
<mask id="path-1-inside-1_964_8" fill="white">
<path fill-rule="evenodd" clip-rule="evenodd" d="M10.1695 10.5899C13.0938 10.5899 15.4644 8.21931 15.4644 5.29497C15.4644 2.37064 13.0938 0 10.1695 0C7.24512 0 4.87448 2.37064 4.87448 5.29497C4.87448 8.21931 7.24512 10.5899 10.1695 10.5899ZM19.8562 20.7284V18.0809C19.8562 16.6766 19.2983 15.3298 18.3053 14.3368C17.3123 13.3438 15.9655 12.786 14.5612 12.786H5.29497C3.89066 12.786 2.54386 13.3438 1.55086 14.3368C0.557862 15.3298 0 16.6766 0 18.0809V20.7284H19.8562ZM22.0831 3.97119C22.8142 3.97119 23.4069 4.56385 23.4069 5.29493V7.94237H26.0547C26.7857 7.94237 27.3784 8.53503 27.3784 9.26612C27.3784 9.9972 26.7857 10.5899 26.0547 10.5899H23.4069V13.2374C23.4069 13.9685 22.8142 14.5611 22.0831 14.5611C21.352 14.5611 20.7594 13.9685 20.7594 13.2374V10.5899H18.1122C17.3811 10.5899 16.7885 9.9972 16.7885 9.26612C16.7885 8.53503 17.3811 7.94237 18.1122 7.94237H20.7594V5.29493C20.7594 4.56385 21.352 3.97119 22.0831 3.97119Z"/>
</mask>
<path fill-rule="evenodd" clip-rule="evenodd" d="M10.1695 10.5899C13.0938 10.5899 15.4644 8.21931 15.4644 5.29497C15.4644 2.37064 13.0938 0 10.1695 0C7.24512 0 4.87448 2.37064 4.87448 5.29497C4.87448 8.21931 7.24512 10.5899 10.1695 10.5899ZM19.8562 20.7284V18.0809C19.8562 16.6766 19.2983 15.3298 18.3053 14.3368C17.3123 13.3438 15.9655 12.786 14.5612 12.786H5.29497C3.89066 12.786 2.54386 13.3438 1.55086 14.3368C0.557862 15.3298 0 16.6766 0 18.0809V20.7284H19.8562ZM22.0831 3.97119C22.8142 3.97119 23.4069 4.56385 23.4069 5.29493V7.94237H26.0547C26.7857 7.94237 27.3784 8.53503 27.3784 9.26612C27.3784 9.9972 26.7857 10.5899 26.0547 10.5899H23.4069V13.2374C23.4069 13.9685 22.8142 14.5611 22.0831 14.5611C21.352 14.5611 20.7594 13.9685 20.7594 13.2374V10.5899H18.1122C17.3811 10.5899 16.7885 9.9972 16.7885 9.26612C16.7885 8.53503 17.3811 7.94237 18.1122 7.94237H20.7594V5.29493C20.7594 4.56385 21.352 3.97119 22.0831 3.97119Z" fill="white"/>
<path d="M19.8562 20.7284V22.8344C21.0193 22.8344 21.9621 21.8915 21.9621 20.7284H19.8562ZM18.3053 14.3368L19.7944 12.8477V12.8477L18.3053 14.3368ZM1.55086 14.3368L3.04001 15.826L1.55086 14.3368ZM0 20.7284H-2.10597C-2.10597 21.8915 -1.1631 22.8344 0 22.8344L0 20.7284ZM23.4069 7.94237H21.3009C21.3009 9.10547 22.2438 10.0483 23.4069 10.0483V7.94237ZM23.4069 10.5899V8.48388C22.2438 8.48388 21.3009 9.42676 21.3009 10.5899H23.4069ZM20.7594 10.5899H22.8654C22.8654 9.42676 21.9225 8.48388 20.7594 8.48388V10.5899ZM20.7594 7.94237V10.0483C21.9225 10.0483 22.8654 9.10547 22.8654 7.94237H20.7594ZM13.3585 5.29497C13.3585 7.05621 11.9307 8.48397 10.1695 8.48397V12.6959C14.2569 12.6959 17.5704 9.38241 17.5704 5.29497H13.3585ZM10.1695 2.10597C11.9307 2.10597 13.3585 3.53374 13.3585 5.29497H17.5704C17.5704 1.20754 14.2569 -2.10597 10.1695 -2.10597V2.10597ZM6.98045 5.29497C6.98045 3.53374 8.40822 2.10597 10.1695 2.10597V-2.10597C6.08202 -2.10597 2.7685 1.20754 2.7685 5.29497H6.98045ZM10.1695 8.48397C8.40822 8.48397 6.98045 7.05621 6.98045 5.29497H2.7685C2.7685 9.38241 6.08202 12.6959 10.1695 12.6959V8.48397ZM17.7502 18.0809V20.7284H21.9621V18.0809H17.7502ZM16.8161 15.826C17.4142 16.424 17.7502 17.2352 17.7502 18.0809H21.9621C21.9621 16.1181 21.1824 14.2356 19.7944 12.8477L16.8161 15.826ZM14.5612 14.892C15.407 14.892 16.2181 15.2279 16.8161 15.826L19.7944 12.8477C18.4065 11.4597 16.524 10.68 14.5612 10.68V14.892ZM5.29497 14.892H14.5612V10.68H5.29497V14.892ZM3.04001 15.826C3.63807 15.2279 4.4492 14.892 5.29497 14.892V10.68C3.33212 10.68 1.44966 11.4597 0.0617131 12.8477L3.04001 15.826ZM2.10597 18.0809C2.10597 17.2352 2.44196 16.424 3.04001 15.826L0.0617132 12.8477C-1.32623 14.2356 -2.10597 16.1181 -2.10597 18.0809H2.10597ZM2.10597 20.7284V18.0809H-2.10597V20.7284H2.10597ZM19.8562 18.6225H0V22.8344H19.8562V18.6225ZM25.5128 5.29493C25.5128 3.40075 23.9773 1.86521 22.0831 1.86521V6.07716C21.6511 6.07716 21.3009 5.72694 21.3009 5.29493H25.5128ZM25.5128 7.94237V5.29493H21.3009V7.94237H25.5128ZM26.0547 5.8364H23.4069V10.0483H26.0547V5.8364ZM29.4844 9.26612C29.4844 7.37193 27.9488 5.8364 26.0547 5.8364V10.0483C25.6226 10.0483 25.2724 9.69813 25.2724 9.26612H29.4844ZM26.0547 12.6958C27.9488 12.6958 29.4844 11.1603 29.4844 9.26612H25.2724C25.2724 8.8341 25.6226 8.48388 26.0547 8.48388V12.6958ZM23.4069 12.6958H26.0547V8.48388H23.4069V12.6958ZM25.5128 13.2374V10.5899H21.3009V13.2374H25.5128ZM22.0831 16.6671C23.9773 16.6671 25.5128 15.1316 25.5128 13.2374H21.3009C21.3009 12.8054 21.6511 12.4552 22.0831 12.4552V16.6671ZM18.6534 13.2374C18.6534 15.1316 20.1889 16.6671 22.0831 16.6671V12.4552C22.5151 12.4552 22.8654 12.8054 22.8654 13.2374H18.6534ZM18.6534 10.5899V13.2374H22.8654V10.5899H18.6534ZM18.1122 12.6958H20.7594V8.48388H18.1122V12.6958ZM14.6825 9.26612C14.6825 11.1603 16.218 12.6958 18.1122 12.6958V8.48388C18.5442 8.48388 18.8944 8.8341 18.8944 9.26612H14.6825ZM18.1122 5.8364C16.218 5.8364 14.6825 7.37193 14.6825 9.26612H18.8944C18.8944 9.69813 18.5442 10.0483 18.1122 10.0483V5.8364ZM20.7594 5.8364H18.1122V10.0483H20.7594V5.8364ZM18.6534 5.29493V7.94237H22.8654V5.29493H18.6534ZM22.0831 1.86521C20.1889 1.86521 18.6534 3.40075 18.6534 5.29493H22.8654C22.8654 5.72694 22.5151 6.07716 22.0831 6.07716V1.86521Z" fill="white" mask="url(#path-1-inside-1_964_8)"/>
</svg>
