<svg width="22" height="21" viewBox="0 0 22 21" fill="none" xmlns="http://www.w3.org/2000/svg">
<mask id="path-1-inside-1_964_496" fill="white">
<path fill-rule="evenodd" clip-rule="evenodd" d="M1.95883 0.979414C1.95883 0.438498 1.52033 0 0.979414 0C0.438498 0 0 0.438498 0 0.979414V19.7842C0 20.3251 0.438498 20.7636 0.979414 20.7636H19.7842C20.3251 20.7636 20.7636 20.3251 20.7636 19.7842C20.7636 19.2432 20.3251 18.8047 19.7842 18.8047H1.95883V0.979414ZM20.958 4.67448C21.3493 4.02621 21.1412 3.18336 20.4929 2.79194C19.8446 2.40054 19.0017 2.60877 18.6103 3.25704L14.912 9.38247L9.31223 7.01505C8.70407 6.75792 7.99902 6.97076 7.63471 7.52146L3.44475 13.855C3.02692 14.4866 3.20021 15.3373 3.83178 15.7551C4.46337 16.173 5.31408 15.9997 5.73191 15.3682L9.29344 9.98447L14.938 12.3708C15.5659 12.6363 16.2934 12.4002 16.6458 11.8166L20.958 4.67448Z"/>
</mask>
<path fill-rule="evenodd" clip-rule="evenodd" d="M1.95883 0.979414C1.95883 0.438498 1.52033 0 0.979414 0C0.438498 0 0 0.438498 0 0.979414V19.7842C0 20.3251 0.438498 20.7636 0.979414 20.7636H19.7842C20.3251 20.7636 20.7636 20.3251 20.7636 19.7842C20.7636 19.2432 20.3251 18.8047 19.7842 18.8047H1.95883V0.979414ZM20.958 4.67448C21.3493 4.02621 21.1412 3.18336 20.4929 2.79194C19.8446 2.40054 19.0017 2.60877 18.6103 3.25704L14.912 9.38247L9.31223 7.01505C8.70407 6.75792 7.99902 6.97076 7.63471 7.52146L3.44475 13.855C3.02692 14.4866 3.20021 15.3373 3.83178 15.7551C4.46337 16.173 5.31408 15.9997 5.73191 15.3682L9.29344 9.98447L14.938 12.3708C15.5659 12.6363 16.2934 12.4002 16.6458 11.8166L20.958 4.67448Z" fill="white"/>
<path d="M1.95883 18.8047H-20.0412V40.8047H1.95883V18.8047ZM20.958 4.67448L39.7914 16.0456L39.793 16.0431L20.958 4.67448ZM20.4929 2.79194L31.864 -16.0415L31.8637 -16.0417L20.4929 2.79194ZM18.6103 3.25704L-0.222644 -8.11491L-0.223243 -8.11392L18.6103 3.25704ZM14.912 9.38247L6.34511 29.646L23.8965 37.0662L33.7455 20.7534L14.912 9.38247ZM9.31223 7.01505L0.745111 27.2784L0.745366 27.2785L9.31223 7.01505ZM7.63471 7.52146L25.9831 19.6598L25.9831 19.6597L7.63471 7.52146ZM3.44475 13.855L21.793 25.9935L21.7931 25.9933L3.44475 13.855ZM3.83178 15.7551L15.9723 -2.59179L15.9693 -2.59375L3.83178 15.7551ZM5.73191 15.3682L24.0797 27.5073L24.0803 27.5064L5.73191 15.3682ZM9.29344 9.98447L17.8603 -10.279L1.02796 -17.3953L-9.05496 -2.15374L9.29344 9.98447ZM14.938 12.3708L6.37111 32.6343L6.37214 32.6348L14.938 12.3708ZM16.6458 11.8166L35.478 23.1898L35.4792 23.1878L16.6458 11.8166ZM23.9588 0.979414C23.9588 -11.7117 13.6706 -22 0.979414 -22V22C-10.63 22 -20.0412 12.5887 -20.0412 0.979414H23.9588ZM0.979414 -22C-11.7118 -22 -22 -11.7118 -22 0.979414H22C22 12.5888 12.5888 22 0.979414 22V-22ZM-22 0.979414V19.7842H22V0.979414H-22ZM-22 19.7842C-22 32.4759 -11.7113 42.7636 0.979414 42.7636V-1.23643C12.5883 -1.23643 22 8.17433 22 19.7842H-22ZM0.979414 42.7636H19.7842V-1.23643H0.979414V42.7636ZM19.7842 42.7636C32.4754 42.7636 42.7636 32.4754 42.7636 19.7842H-1.23643C-1.23643 8.17484 8.17485 -1.23643 19.7842 -1.23643V42.7636ZM42.7636 19.7842C42.7636 7.09299 32.4754 -3.19526 19.7842 -3.19526V40.8047C8.17479 40.8047 -1.23643 31.3934 -1.23643 19.7842H42.7636ZM19.7842 -3.19526H1.95883V40.8047H19.7842V-3.19526ZM23.9588 18.8047V0.979414H-20.0412V18.8047H23.9588ZM39.793 16.0431C46.46 4.99746 42.9167 -9.36822 31.864 -16.0415L9.12186 21.6254C-0.634222 15.7349 -3.76136 3.05495 2.12311 -6.69413L39.793 16.0431ZM31.8637 -16.0417C20.8145 -22.7126 6.44916 -19.164 -0.222644 -8.11491L37.4432 14.629C31.5543 24.3815 18.8748 27.5137 9.12219 21.6256L31.8637 -16.0417ZM-0.223243 -8.11392L-3.92154 -1.98849L33.7455 20.7534L37.4438 14.628L-0.223243 -8.11392ZM23.4788 -10.881L17.8791 -13.2484L0.745366 27.2785L6.34511 29.646L23.4788 -10.881ZM17.8794 -13.2483C7.5132 -17.631 -4.5042 -14.0031 -10.7137 -4.61681L25.9831 19.6597C20.5022 27.9446 9.89495 31.1469 0.745111 27.2784L17.8794 -13.2483ZM-10.7136 -4.61684L-14.9036 1.71674L21.7931 25.9933L25.9831 19.6598L-10.7136 -4.61684ZM-14.9035 1.71653C-22.0251 12.4814 -19.072 26.9822 -8.30578 34.1039L15.9693 -2.59375C25.4724 3.69244 28.0789 16.4918 21.793 25.9935L-14.9035 1.71653ZM-8.30873 34.102C2.45762 41.2263 16.9583 38.2711 24.0797 27.5073L-12.6159 3.22904C-6.3301 -6.27165 6.46912 -8.88024 15.9723 -2.59179L-8.30873 34.102ZM24.0803 27.5064L27.6418 22.1227L-9.05496 -2.15374L-12.6165 3.22996L24.0803 27.5064ZM0.726564 30.2479L6.37111 32.6343L23.5049 -7.89264L17.8603 -10.279L0.726564 30.2479ZM6.37214 32.6348C17.0745 37.1588 29.4728 33.1334 35.478 23.1898L-2.18639 0.443454C3.11395 -8.3331 14.0574 -11.8862 23.5038 -7.89308L6.37214 32.6348ZM35.4792 23.1878L39.7914 16.0456L2.12465 -6.69667L-2.18759 0.445448L35.4792 23.1878Z" fill="white" mask="url(#path-1-inside-1_964_496)"/>
</svg>
