<svg width="23" height="23" viewBox="0 0 23 23" fill="none" xmlns="http://www.w3.org/2000/svg">
<path d="M0.977783 3.35062C0.977783 2.72719 1.20067 2.12931 1.59741 1.68848C1.99416 1.24765 2.53226 1 3.09334 1H9.44001V22.1556H3.09334C2.53226 22.1556 1.99416 21.9079 1.59741 21.4671C1.20067 21.0263 0.977783 20.4284 0.977783 19.8049V3.35062ZM13.6711 1H20.0178C20.5789 1 21.117 1.24765 21.5137 1.68848C21.9104 2.12931 22.1333 2.72719 22.1333 3.35062V9.22716H13.6711V1ZM13.6711 13.9284H22.1333V19.8049C22.1333 20.4284 21.9104 21.0263 21.5137 21.4671C21.117 21.9079 20.5789 22.1556 20.0178 22.1556H13.6711V13.9284Z" stroke="white" stroke-width="1.24444" stroke-linecap="round" stroke-linejoin="round"/>
</svg>
